# xmcd CD database file generated by Grip 3.2.0
# 
# Track frame offsets:
#       150
#       20435
#       76657
#       99627
#       120590
#       213587
#       221767
#       236967
#       256827
#       271342
# 
# Disc length: 4019 seconds
# 
# Revision: 4
# Processed by: cddbd v1.5.1PL2 Copyright (c) Steve Scherf et al.
# Submitted via: Grip 3.2.0
# 
DISCID=890fb10a
DTITLE=Emerson, Lake and Palmer - Fanfare for the Common ManL The Anthology (Di
DTITLE=sc 1)
DYEAR=1900
DGENRE=Rock
TTITLE0=The Barbarian
TTITLE1=Take a Pebble
TTITLE2=Knife Edge
TTITLE3=Luck Man
TTITLE4=Tarkus
TTITLE5=Jeremy Bender
TTITLE6=The Sheriff
TTITLE7=Nutrocker
TTITLE8=Living Sin
TTITLE9=The Endless Enigma
EXTD=
EXTT0=
EXTT1=
EXTT2=
EXTT3=
EXTT4=
EXTT5=
EXTT6=
EXTT7=
EXTT8=
EXTT9=
PLAYORDER=
